<svg xmlns="http://www.w3.org/2000/svg" viewBox="0 0 240 240"><path d="M66.964 134.874s-32.08-10.062-51.344-16.002c-17.542-6.693-1.57-14.928 6.015-17.59 7.585-2.66 186.38-71.948 194.94-75.233 8.94-4.147 19.884-.35 14.767 18.656-4.416 20.407-30.166 142.874-33.827 158.812-3.66 15.937-18.447 6.844-18.447 6.844l-83.21-61.442z" fill="#039be5"/><path d="M98.79 187.637s-4.407.974-9.936-3.468c-5.527-4.44 9.748-31.277 9.748-31.277L156.24 95.8l-70.156 83.79-33.983 15.69s-5.625 3.507-3.952-5.886c1.672-9.394 17.185-78.786 17.185-78.786L197.389 60.43z" fill="#fff"/></svg>
